<?xml version="1.0" standalone="no"?>
<!DOCTYPE svg PUBLIC "-//W3C//DTD SVG 20010904//EN"
 "http://www.w3.org/TR/2001/REC-SVG-20010904/DTD/svg10.dtd">
<svg version="1.0" xmlns="http://www.w3.org/2000/svg"
 width="1080.000000pt" height="1080.000000pt" viewBox="0 0 1080.000000 1080.000000"
 preserveAspectRatio="xMidYMid meet">

<g transform="translate(0.000000,1080.000000) scale(0.100000,-0.100000)"
fill="#000000" stroke="none">
<path d="M5687 9464 c-4 -4 -7 -16 -7 -26 0 -13 7 -18 26 -18 21 0 25 4 22 22
-3 23 -27 35 -41 22z"/>
<path d="M5400 9383 c-63 -24 -108 -102 -96 -168 9 -48 59 -102 107 -116 32
-10 46 -9 84 5 41 16 85 56 85 77 0 18 -43 8 -72 -16 -94 -79 -216 59 -129
146 42 41 98 41 140 -2 19 -18 39 -29 51 -27 20 3 20 3 0 36 -35 57 -112 87
-170 65z"/>
<path d="M5176 9355 l6 -26 -36 22 c-89 52 -196 -20 -196 -131 0 -128 143
-196 230 -109 27 28 30 29 30 10 0 -16 6 -21 25 -21 24 0 25 3 20 33 -6 39
-35 235 -35 242 0 3 -11 5 -25 5 -22 0 -25 -3 -19 -25z m-11 -67 c80 -95 -39
-222 -133 -143 -40 34 -49 75 -25 123 32 65 112 75 158 20z"/>
<path d="M5657 9242 c-21 -161 -21 -162 3 -162 21 0 22 2 44 170 8 57 12 108
10 112 -3 4 -13 8 -23 8 -15 0 -20 -19 -34 -128z"/>
<path d="M5850 9312 c-114 -57 -105 -222 15 -268 38 -14 52 -15 85 -5 53 16
88 48 104 95 43 124 -87 237 -204 178z m128 -42 c9 0 42 -69 42 -88 0 -86
-102 -132 -169 -76 -85 71 -14 203 94 172 16 -4 31 -8 33 -8z"/>
<path d="M4713 9281 c-23 -11 -48 -32 -57 -48 -8 -15 -15 -23 -16 -18 -1 21
-17 35 -33 29 -9 -3 -17 -11 -17 -16 0 -21 131 -418 138 -418 4 0 13 4 21 9
11 7 8 26 -17 105 -25 81 -27 96 -13 90 94 -42 191 22 191 124 0 115 -100 188
-197 143z m91 -41 c38 -14 68 -67 62 -109 -14 -93 -140 -121 -181 -40 -49 93
25 185 119 149z"/>
<path d="M6374 9255 c-8 -21 2 -45 19 -45 8 0 20 7 27 15 10 12 10 18 0 30 -7
8 -19 15 -27 15 -7 0 -16 -7 -19 -15z"/>
<path d="M4053 9129 c-57 -38 -103 -73 -103 -78 0 -11 227 -348 239 -355 9 -6
211 131 211 142 -1 33 -21 28 -105 -28 -49 -33 -92 -56 -95 -52 -16 18 -80
113 -80 117 0 2 38 31 85 63 73 51 83 61 72 76 -11 14 -20 11 -94 -39 -45 -30
-86 -55 -90 -55 -8 0 -83 111 -83 122 0 4 38 32 85 64 47 32 85 61 85 65 0 3
-6 11 -12 17 -10 7 -42 -10 -115 -59z"/>
<path d="M4420 9164 c-45 -19 -69 -51 -70 -91 0 -59 41 -79 126 -64 63 12 94
2 94 -29 0 -41 -62 -71 -106 -52 -23 11 -54 7 -54 -8 0 -19 40 -40 76 -40 48
0 98 29 119 70 15 29 15 34 -2 68 l-18 37 -89 0 c-72 0 -91 3 -99 17 -9 13 -7
22 8 38 16 18 27 21 60 17 22 -4 47 -2 55 3 13 8 13 11 0 24 -24 23 -62 27
-100 10z"/>
<path d="M6283 9049 c-59 -123 -60 -130 -42 -140 18 -9 25 1 79 114 33 69 60
128 60 131 0 3 -8 10 -18 15 -16 9 -25 -6 -79 -120z"/>
<path d="M6717 9065 c-56 -90 -77 -113 -77 -81 0 26 -51 76 -90 87 -87 26
-183 -50 -183 -144 0 -84 51 -137 133 -137 40 0 49 -7 30 -26 -6 -6 -3 -14 10
-22 23 -14 14 -26 164 216 101 162 118 202 84 202 -7 0 -39 -43 -71 -95z
m-136 -64 c64 -64 20 -171 -70 -171 -55 0 -90 32 -98 87 -5 39 -2 46 30 78 46
46 95 49 138 6z"/>
<path d="M6722 8840 c-34 -21 -72 -87 -72 -125 0 -38 38 -104 72 -125 21 -12
51 -20 80 -20 78 0 69 29 -14 44 -63 11 -104 82 -82 140 5 12 26 -2 95 -64 49
-44 94 -80 99 -80 19 0 50 65 50 105 0 112 -132 184 -228 125z m128 -35 c16
-8 34 -24 40 -34 12 -24 13 -101 1 -101 -7 0 -80 61 -145 121 -6 5 1 12 15 18
35 14 56 13 89 -4z"/>
<path d="M5170 8771 c-191 -20 -368 -79 -553 -184 -131 -75 -323 -246 -418
-372 -45 -60 -124 -188 -146 -235 -66 -146 -93 -227 -122 -362 -30 -138 -30
-406 -1 -540 31 -140 63 -235 113 -338 92 -190 249 -389 401 -505 22 -17 51
-39 65 -51 33 -26 164 -105 215 -128 84 -39 180 -76 197 -76 10 0 20 -4 23 -9
3 -4 22 -11 43 -14 21 -3 69 -13 108 -22 109 -24 383 -21 510 6 342 71 633
248 849 517 228 284 327 587 313 957 -5 129 -11 168 -39 280 -45 176 -129 354
-232 495 -222 301 -525 494 -894 569 -69 14 -337 21 -432 12z m405 -89 c125
-20 284 -75 405 -140 223 -121 431 -325 544 -537 15 -27 31 -57 36 -65 18 -31
50 -110 50 -123 0 -7 4 -17 9 -22 17 -19 59 -212 72 -327 15 -141 1 -312 -37
-453 -47 -177 -61 -201 -66 -119 l-3 46 -90 29 c-369 117 -455 146 -462 153
-4 3 -21 6 -40 6 l-33 0 -2 -497 c-3 -465 -4 -498 -20 -501 -17 -3 -18 52 -18
1048 0 664 -4 1058 -10 1070 -9 16 -103 90 -115 90 -3 0 -62 38 -131 85 -69
47 -128 85 -130 85 -3 0 -31 18 -63 40 -31 22 -60 40 -64 40 -4 0 -8 -584 -9
-1297 l-3 -1298 -27 -3 -28 -3 0 1290 c0 709 -3 1296 -6 1304 -5 13 -9 13 -35
-1 -16 -10 -29 -20 -29 -24 0 -5 -4 -8 -9 -8 -5 0 -65 -36 -133 -80 -67 -44
-130 -84 -138 -87 -8 -4 -19 -11 -25 -15 -12 -10 -53 -36 -168 -108 -48 -30
-90 -62 -92 -71 -3 -10 -6 -304 -6 -656 0 -351 -3 -648 -6 -660 -5 -23 -69
-70 -80 -59 -4 3 -8 84 -9 179 -2 94 -3 186 -3 204 -1 25 -6 32 -23 35 -23 3
-23 4 -26 216 -1 123 -6 212 -12 212 -8 0 -87 -34 -235 -100 -117 -52 -135
-60 -145 -60 -5 0 -16 -11 -25 -24 -13 -19 -15 -57 -13 -224 2 -191 1 -202
-17 -216 -16 -12 -21 -30 -25 -98 -5 -79 -6 -82 -19 -53 -16 35 -25 69 -54
190 -38 166 -28 485 22 635 4 14 14 43 20 65 37 123 157 340 241 435 73 84
150 158 230 221 52 41 181 119 197 119 6 0 13 4 15 8 2 4 35 21 73 36 102 41
106 43 155 56 25 7 55 16 68 21 13 5 42 9 65 10 23 1 53 5 67 9 31 11 333 5
415 -8z m-315 -355 c0 -67 -3 -87 -17 -99 -35 -31 -196 -127 -204 -122 -5 3
-9 40 -9 83 0 66 3 81 20 96 32 29 183 124 198 125 9 0 12 -23 12 -83z m-290
-187 c0 -59 -4 -83 -15 -92 -38 -32 -42 -34 -110 -72 -10 -6 -26 -17 -33 -24
-27 -24 -37 -7 -40 66 -2 57 1 77 15 97 10 13 21 25 25 25 4 0 38 20 75 44 38
24 71 42 76 39 4 -2 7 -40 7 -83z m290 -125 l0 -85 -47 -35 c-27 -19 -61 -41
-78 -49 -16 -9 -43 -24 -59 -35 -17 -11 -33 -18 -38 -15 -4 3 -8 40 -8 83 0
63 4 81 19 95 32 29 184 126 198 126 10 0 13 -21 13 -85z m-290 -188 l0 -82
-48 -31 c-108 -70 -133 -84 -142 -79 -15 9 -12 148 3 167 16 22 170 117 180
111 4 -2 7 -41 7 -86z m290 -120 c0 -67 -3 -87 -17 -99 -37 -32 -196 -127
-204 -122 -5 3 -9 43 -9 88 l0 83 82 54 c45 30 91 59 102 66 42 23 46 17 46
-70z m-292 -193 l-3 -79 -88 -58 c-48 -32 -92 -55 -97 -52 -6 3 -10 42 -10 85
l0 78 92 61 c51 33 96 57 101 52 4 -4 7 -43 5 -87z m-480 -44 c5 -83 -1 -95
-64 -125 -75 -35 -84 -30 -84 47 0 65 18 108 44 108 8 0 27 7 42 15 47 25 59
17 62 -45z m757 -169 c-25 -25 -199 -129 -207 -124 -5 2 -8 40 -8 83 0 87 6
99 75 136 19 10 35 22 35 26 0 5 4 8 10 8 5 0 31 14 57 30 l48 31 3 -87 c2
-69 0 -91 -13 -103z m-943 112 c5 -59 -3 -133 -14 -133 -6 0 -32 -11 -58 -24
-27 -13 -51 -22 -54 -19 -3 4 -6 41 -6 82 l0 76 38 19 c20 10 44 22 52 27 29
16 39 9 42 -28z m668 -203 c0 -77 -1 -79 -32 -104 -56 -42 -150 -96 -159 -90
-11 6 -12 144 -1 160 13 21 173 124 183 118 5 -3 9 -41 9 -84z m-480 -33 l0
-82 -32 -16 c-76 -37 -87 -41 -97 -35 -13 9 -14 125 -1 146 8 12 101 65 123
69 4 0 7 -36 7 -82z m-172 -81 c2 -39 -2 -73 -8 -81 -14 -17 -119 -59 -127
-52 -9 10 -16 103 -9 131 4 18 21 33 59 50 76 36 81 33 85 -48z m940 -13 l-3
-86 -45 -33 c-25 -18 -50 -33 -57 -33 -6 -1 -13 -5 -15 -9 -5 -13 -95 -62
-102 -55 -3 3 -6 41 -6 83 0 89 0 89 120 169 108 71 111 70 108 -36z m-738
-139 c0 -87 -7 -100 -70 -128 -32 -14 -63 -26 -69 -26 -7 0 -11 27 -11 78 l0
79 67 31 c76 35 83 32 83 -34z m450 -48 l0 -83 -35 -19 c-19 -10 -35 -22 -35
-26 0 -5 -5 -8 -11 -8 -6 0 -30 -14 -55 -31 -24 -16 -49 -27 -54 -24 -6 3 -10
40 -10 81 0 81 11 100 77 134 15 8 30 17 33 20 14 16 75 48 82 44 4 -3 8 -42
8 -88z m1116 46 c5 -4 27 -14 49 -21 85 -27 85 -26 85 -109 0 -67 -2 -73 -17
-67 -10 4 -34 11 -54 15 -19 3 -53 15 -75 26 l-39 19 -3 73 c-3 70 -2 72 21
72 12 0 27 -4 33 -8z m-1766 -95 c0 -58 -4 -77 -17 -89 -24 -20 -102 -50 -114
-43 -5 4 -9 36 -9 73 0 55 4 71 20 85 11 9 24 17 29 17 5 0 22 7 37 15 50 26
54 21 54 -58z m2060 4 c36 -13 71 -30 78 -39 6 -9 12 -42 12 -73 0 -37 -4 -59
-12 -62 -18 -5 -171 43 -180 57 -4 6 -8 41 -8 78 0 65 10 85 35 68 6 -3 39
-17 75 -29z m-1863 -186 c-1 -33 -7 -67 -12 -76 -10 -15 -103 -59 -125 -59 -7
0 -10 26 -8 78 l3 77 65 32 c75 38 79 35 77 -52z m-199 -85 c3 -69 -4 -89 -30
-90 -11 0 -78 97 -78 114 0 16 76 58 95 52 6 -1 11 -36 13 -76z m1787 61 c11
-5 40 -15 65 -23 l45 -15 0 -74 c0 -74 0 -74 -26 -71 -14 2 -54 13 -90 25
l-64 22 -3 64 c-5 96 0 101 73 72z m259 -76 c31 -14 56 -29 56 -34 0 -15 -73
-99 -92 -106 -9 -3 -26 0 -37 7 -18 11 -21 23 -21 79 0 91 4 94 94 54z"/>
<path d="M3803 8721 c-10 -17 -6 -24 39 -61 88 -75 109 -134 65 -186 -32 -37
-56 -29 -145 52 -68 62 -75 66 -90 51 -15 -15 -11 -21 48 -74 86 -79 109 -93
150 -93 54 1 100 49 100 103 0 26 2 28 16 17 12 -11 18 -11 30 2 14 13 4 25
-89 111 -57 54 -106 97 -108 97 -2 0 -10 -9 -16 -19z"/>
<path d="M6972 8603 c-60 -29 -98 -102 -85 -165 8 -40 66 -98 98 -98 27 0 32
-9 13 -28 -9 -9 -9 -16 3 -28 14 -13 26 -6 122 72 59 47 107 89 107 93 0 3 -5
13 -10 21 -7 12 -12 12 -22 2 -21 -21 -28 -14 -28 27 0 92 -108 149 -198 104z
m125 -48 c47 -33 49 -109 6 -157 -39 -43 -131 -29 -158 23 -24 45 -19 77 19
115 27 27 42 34 73 34 21 0 48 -7 60 -15z"/>
<path d="M3406 8484 c-56 -85 -67 -107 -55 -115 21 -13 22 -12 49 31 14 22 28
40 32 40 4 0 79 -49 167 -109 114 -78 162 -106 170 -98 6 6 11 16 11 22 -1 5
-71 57 -156 115 -86 57 -158 108 -160 112 -3 4 7 24 22 43 26 34 27 65 2 65
-7 0 -44 -48 -82 -106z"/>
<path d="M7250 8333 c-181 -116 -202 -134 -181 -156 12 -12 406 241 406 261 0
9 -7 18 -15 19 -8 1 -103 -55 -210 -124z"/>
<path d="M4004 5491 c-173 -42 -277 -214 -252 -418 10 -88 47 -161 109 -217
63 -56 130 -80 229 -80 186 0 303 104 330 292 28 200 -66 370 -230 416 -59 17
-133 19 -186 7z m171 -97 c41 -19 81 -84 96 -153 18 -88 6 -213 -28 -280 -40
-79 -68 -96 -157 -96 -64 0 -77 3 -109 27 -54 42 -80 118 -81 243 0 119 19
186 67 233 52 50 137 60 212 26z"/>
<path d="M2920 5461 c0 -11 -2 -26 -5 -34 -4 -10 8 -19 40 -31 l45 -18 0 -242
0 -243 -43 -17 c-41 -15 -43 -18 -39 -51 l4 -36 142 3 141 3 3 32 c3 30 0 34
-37 49 l-41 16 0 109 0 109 145 0 146 0 -3 -112 -3 -111 -35 -12 c-19 -6 -35
-17 -34 -23 1 -7 2 -23 3 -37 l1 -25 139 0 c148 0 151 1 151 52 0 14 -12 24
-40 35 l-40 16 2 245 3 245 35 12 c30 10 35 16 38 48 l3 37 -145 0 c-110 0
-146 -3 -146 -12 0 -7 -3 -22 -6 -34 -4 -17 2 -23 35 -36 l41 -16 0 -103 0
-102 -97 6 c-54 4 -120 7 -146 7 l-48 0 3 97 3 96 35 12 c30 10 35 16 38 48
l3 37 -145 0 c-137 0 -146 -1 -146 -19z"/>
<path d="M4578 5446 c-4 -32 -1 -36 34 -49 46 -19 46 -6 13 -277 -14 -113 -25
-210 -25 -216 0 -6 -19 -19 -43 -28 -41 -15 -43 -18 -39 -51 l4 -35 114 0 114
0 0 36 c0 31 -4 37 -35 50 -28 11 -35 20 -35 42 1 41 36 301 41 307 3 2 43
-98 89 -224 48 -133 87 -228 94 -226 6 2 23 6 37 9 24 5 33 25 110 236 46 126
87 230 90 230 8 0 41 -351 34 -359 -4 -3 -21 -11 -38 -17 -18 -6 -32 -16 -31
-22 1 -7 2 -23 3 -37 l1 -25 139 0 c117 0 140 2 145 16 14 37 6 54 -34 70 -22
9 -40 19 -40 23 -1 3 -11 112 -24 241 -13 129 -22 237 -19 240 2 3 19 10 36
16 28 9 32 16 32 45 l0 34 -104 0 -105 0 -95 -260 -96 -260 -5 60 c-4 40 -30
127 -80 262 l-75 203 -101 0 -102 0 -4 -34z"/>
<path d="M5482 5443 c3 -32 8 -38 38 -48 l35 -12 3 -245 2 -246 -40 -16 c-38
-15 -41 -19 -38 -49 l3 -32 263 -3 262 -2 0 105 c0 77 -3 105 -12 105 -7 0
-23 3 -35 6 -16 4 -23 0 -28 -18 -4 -12 -16 -47 -27 -75 l-19 -53 -100 0 -100
0 3 123 3 122 52 3 52 3 12 -40 c10 -34 16 -41 38 -41 49 0 52 9 49 121 l-3
104 -37 3 c-34 3 -37 1 -48 -32 -11 -35 -13 -36 -66 -36 l-54 0 0 110 0 110
98 0 98 0 18 -55 c14 -46 21 -55 41 -55 51 0 55 6 55 96 l0 84 -261 0 -260 0
3 -37z"/>
<path d="M6380 5468 c0 -7 -3 -23 -6 -34 -5 -18 0 -24 30 -34 20 -6 38 -16 42
-21 3 -5 -7 -117 -22 -249 l-28 -240 -41 -13 c-22 -8 -40 -19 -39 -25 1 -7 2
-23 3 -37 l1 -25 109 0 c115 0 121 2 121 52 0 14 -12 24 -40 35 -28 11 -39 21
-36 32 3 9 13 85 22 169 10 83 20 152 23 152 4 0 17 -30 30 -67 12 -37 50
-140 83 -229 l59 -162 37 10 37 9 85 234 c51 139 87 226 91 216 3 -9 11 -77
18 -151 7 -74 14 -149 17 -166 5 -29 3 -32 -35 -47 -42 -17 -45 -24 -35 -64 6
-22 10 -23 144 -23 l138 0 6 31 c7 39 3 46 -35 54 -18 4 -34 16 -39 28 -5 12
-16 103 -25 202 -8 99 -18 201 -22 227 l-5 47 41 17 c41 16 49 32 35 68 -5 13
-24 16 -108 16 l-101 0 -79 -218 c-44 -119 -88 -235 -97 -257 l-18 -40 0 45
c-1 30 -28 115 -80 255 l-78 210 -101 3 c-78 2 -102 0 -102 -10z"/>
<path d="M7256 5464 c-14 -37 -6 -52 37 -69 37 -14 52 -32 127 -143 47 -69 85
-132 85 -139 0 -7 -38 -60 -85 -117 -63 -79 -94 -108 -120 -117 -48 -16 -53
-22 -45 -58 l7 -31 113 0 113 0 7 32 c7 32 5 36 -40 63 -15 9 -9 21 51 95 66
80 69 82 72 55 2 -15 21 -52 43 -81 21 -29 39 -55 39 -58 0 -3 -14 -13 -31
-21 -25 -14 -30 -21 -27 -48 l3 -32 153 -3 152 -3 0 35 c0 32 -4 37 -42 54
-37 16 -56 38 -131 150 l-88 131 88 110 c77 96 94 112 136 126 35 12 47 21 43
32 -3 8 -6 23 -6 34 0 18 -8 19 -120 19 -112 0 -120 -1 -120 -19 0 -11 -2 -26
-5 -33 -4 -9 7 -20 30 -31 l36 -17 -68 -81 c-52 -62 -69 -77 -72 -63 -1 11
-20 42 -40 69 -56 76 -56 73 -16 92 28 14 35 22 31 38 -3 11 -6 26 -6 33 0 9
-37 12 -149 12 -127 0 -150 -2 -155 -16z"/>
<path d="M6122 4890 c-31 -29 -29 -73 4 -99 15 -12 32 -21 39 -21 27 0 65 41
65 70 0 19 -9 36 -26 49 -34 26 -54 26 -82 1z"/>
</g>
</svg>
